<mxfile host="Electron" modified="2024-01-23T09:07:09.955Z" agent="Mozilla/5.0 (Windows NT 10.0; Win64; x64) AppleWebKit/537.36 (KHTML, like Gecko) draw.io/22.1.21 Chrome/120.0.6099.109 Electron/28.1.0 Safari/537.36" etag="prn_Yp926HHAPHEeaBVT" version="22.1.21" type="device">
  <diagram name="PÃ¡gina-1" id="YiqvuOs7cbg5dGdlmWgn">
    <mxGraphModel dx="1434" dy="844" grid="1" gridSize="10" guides="1" tooltips="1" connect="1" arrows="1" fold="1" page="1" pageScale="1" pageWidth="827" pageHeight="1169" math="0" shadow="0">
      <root>
        <mxCell id="0" />
        <mxCell id="1" parent="0" />
        <mxCell id="6YGcMl2St3HWjG-U90PT-1" value="DNI" style="swimlane;fontStyle=1;align=center;verticalAlign=top;childLayout=stackLayout;horizontal=1;startSize=26;horizontalStack=0;resizeParent=1;resizeParentMax=0;resizeLast=0;collapsible=1;marginBottom=0;whiteSpace=wrap;html=1;fillColor=#6a00ff;fontColor=#ffffff;strokeColor=#3700CC;" vertex="1" parent="1">
          <mxGeometry x="140" y="140" width="260" height="310" as="geometry" />
        </mxCell>
        <mxCell id="6YGcMl2St3HWjG-U90PT-2" value="- nombre: String&lt;br&gt;- cuenta: String&lt;br&gt;- saldo: double&lt;br&gt;-tipoInteres: double" style="text;strokeColor=none;fillColor=none;align=left;verticalAlign=top;spacingLeft=4;spacingRight=4;overflow=hidden;rotatable=0;points=[[0,0.5],[1,0.5]];portConstraint=eastwest;whiteSpace=wrap;html=1;" vertex="1" parent="6YGcMl2St3HWjG-U90PT-1">
          <mxGeometry y="26" width="260" height="64" as="geometry" />
        </mxCell>
        <mxCell id="6YGcMl2St3HWjG-U90PT-3" value="" style="line;strokeWidth=1;fillColor=none;align=left;verticalAlign=middle;spacingTop=-1;spacingLeft=3;spacingRight=3;rotatable=0;labelPosition=right;points=[];portConstraint=eastwest;strokeColor=inherit;" vertex="1" parent="6YGcMl2St3HWjG-U90PT-1">
          <mxGeometry y="90" width="260" height="8" as="geometry" />
        </mxCell>
        <mxCell id="6YGcMl2St3HWjG-U90PT-4" value="+ CCuenta(): void&lt;br&gt;+ CCuenta(nombre, cuenta,saldo,tipo): void&lt;br&gt;&lt;br&gt;+ asignarNombre(nombre):void&lt;br&gt;+ obtenerNombre(): String&lt;br&gt;+ asignarCuenta(cuenta):void&lt;br&gt;+ obtenerCuenta(): String&lt;br&gt;+ estado(): double&lt;br&gt;+ ingreso(cantidad):void&lt;br&gt;+ reintegro(cantidad):void&lt;br&gt;+ asignarTipoInteres(tipo): void&lt;br&gt;+ obtenerTipoInteres():double&lt;br&gt;@ObtenerDatos( ): String" style="text;strokeColor=none;fillColor=none;align=left;verticalAlign=top;spacingLeft=4;spacingRight=4;overflow=hidden;rotatable=0;points=[[0,0.5],[1,0.5]];portConstraint=eastwest;whiteSpace=wrap;html=1;" vertex="1" parent="6YGcMl2St3HWjG-U90PT-1">
          <mxGeometry y="98" width="260" height="212" as="geometry" />
        </mxCell>
      </root>
    </mxGraphModel>
  </diagram>
</mxfile>
